<!DOCTYPE svg PUBLIC "-//W3C//DTD SVG 1.1//EN" "http://www.w3.org/Graphics/SVG/1.1/DTD/svg11.dtd">
<!-- Uploaded to: SVG Repo, www.svgrepo.com, Transformed by: SVG Repo Mixer Tools -->
<svg fill="#80305b" version="1.1" id="Capa_1" xmlns="http://www.w3.org/2000/svg" xmlns:xlink="http://www.w3.org/1999/xlink" width="800px" height="800px" viewBox="0 0 241.072 241.072" xml:space="preserve" stroke="#80305b">
<g id="SVGRepo_bgCarrier" stroke-width="0"/>
<g id="SVGRepo_tracerCarrier" stroke-linecap="round" stroke-linejoin="round"/>
<g id="SVGRepo_iconCarrier"> <g> <path d="M227.363,120.518c5-1.327,9.396-4.771,11.71-9.815c2.472-5.419,2.661-11.715,0.505-17.266 c-2.095-5.404-6.138-9.608-11.38-11.834c-12.557-5.368-21.97,1.022-36.292,11.88c-0.079,0.055-0.146,0.118-0.219,0.161 c-0.006,0.012-0.013,0-0.019,0.012c-2.643,1.739-7.672,4.028-11.752-0.475c-2.289-2.579-2.095-6.54,0.444-8.829 c1.925-1.708,4.89-1.571,6.619,0.356c1.267,1.428,1.157,3.592-0.243,4.847c-0.518,0.46-1.176,0.646-1.827,0.609 c0.201-1.227-0.634-2.369-1.839-2.57c-1.224-0.204-2.369,0.624-2.576,1.833c-0.072,0.433,0.024,0.85,0.183,1.218 c0.043,0.292,0.086,0.591,0.293,0.822c2.058,2.265,5.571,2.451,7.849,0.411c2.673-2.412,2.893-6.552,0.475-9.253 c-2.886-3.203-7.836-3.474-11.027-0.584c-3.812,3.434-4.122,9.358-0.676,13.222c2.131,2.354,4.768,3.544,7.63,3.617 c-0.572,0.487-1.157,0.962-1.711,1.428c-1.772,1.498-3.568,2.987-5.364,4.451c-0.104,0.088-0.201,0.134-0.305,0.201 c-0.019,0.019-0.013,0.043-0.03,0.07c-10.285,8.284-21.373,15.146-36.036,11.298c-7.143-1.866-12.896-6.369-16.188-12.708 c-3.678-7.109-4.022-15.89-0.922-24.107c4.5-11.959,17.549-18.17,29.624-14.416c3.3,1.471,5.681,3.778,6.813,6.759 c1.37,3.568,0.98,7.989-1.06,12.103c-2.728,5.507-9.438,7.764-14.961,5.045c-2.07-1.023-3.611-2.786-4.342-4.981 c-0.73-2.188-0.572-4.521,0.457-6.585c0.767-1.565,2.101-2.731,3.763-3.292c1.675-0.576,3.465-0.435,5.054,0.344 c1.097,0.548,1.906,1.471,2.357,2.606c-1.797-0.195-3.508,0.908-3.946,2.709c-0.475,1.946,0.725,3.943,2.697,4.403 c1.961,0.481,3.94-0.715,4.402-2.691c0.073-0.295,0.037-0.576,0.037-0.856c0.322-1.428,0.39-2.898-0.092-4.308 c-0.688-2.04-2.144-3.705-4.067-4.652c-2.332-1.172-4.975-1.333-7.44-0.499c-2.442,0.843-4.415,2.563-5.548,4.871 c-1.4,2.786-1.619,5.979-0.621,8.966c0.999,2.981,3.1,5.374,5.913,6.784c2.033,1.011,4.195,1.47,6.326,1.47 c5.268,0,10.333-2.917,12.824-7.925c2.191-4.408,2.654-9.134,1.516-13.25c0.731,1.023,1.37,2.122,1.9,3.267 c2.082,4.609,2.247,9.755,0.475,14.492c-2.88,7.663-11.447,11.56-19.114,8.68c-0.804-0.313-1.704,0.106-2.009,0.91 s0.109,1.696,0.907,2c9.268,3.499,19.644-1.214,23.127-10.494c2.076-5.517,1.887-11.515-0.549-16.879 c-2.436-5.361-6.808-9.475-12.33-11.551c-0.444-0.17-0.913-0.219-1.358-0.368c-0.207-0.101-0.383-0.219-0.59-0.308 c-0.165-0.067-0.342,0.012-0.512,0.012c-13.372-3.641-27.59,3.306-32.568,16.526c-0.484,1.291-0.871,2.594-1.203,3.909 c-0.329-1.315-0.716-2.618-1.203-3.909c-4.975-13.22-19.199-20.155-32.562-16.526c-0.173,0-0.341-0.079-0.518-0.012 c-0.21,0.088-0.387,0.207-0.59,0.308c-0.451,0.137-0.911,0.18-1.355,0.368c-5.517,2.077-9.895,6.172-12.328,11.551 c-2.429,5.365-2.625,11.363-0.548,16.879c3.486,9.268,13.862,13.968,23.126,10.494c0.804-0.304,1.218-1.196,0.91-2 c-0.298-0.81-1.208-1.199-2.006-0.91c-7.664,2.886-16.237-1.011-19.117-8.68c-1.784-4.737-1.617-9.883,0.472-14.492 c0.524-1.166,1.167-2.244,1.897-3.267c-1.142,4.116-0.667,8.842,1.519,13.25c2.491,5.027,7.56,7.925,12.821,7.925 c2.134,0,4.29-0.459,6.33-1.47c2.813-1.41,4.914-3.803,5.91-6.784c0.999-2.987,0.78-6.15-0.609-8.96 c-1.136-2.313-3.111-4.034-5.556-4.877c-2.469-0.834-5.106-0.648-7.438,0.499c-1.934,0.947-3.379,2.612-4.074,4.652 c-0.478,1.428-0.405,2.886-0.085,4.308c0,0.28-0.039,0.561,0.031,0.856c0.466,1.958,2.445,3.172,4.402,2.691 c1.964-0.459,3.167-2.463,2.701-4.403c-0.438-1.802-2.159-2.904-3.949-2.709c0.462-1.135,1.26-2.058,2.356-2.606 c1.592-0.779,3.385-0.914,5.051-0.344c1.659,0.56,2.987,1.726,3.766,3.297c1.023,2.058,1.185,4.391,0.457,6.579 c-0.737,2.195-2.284,3.958-4.348,4.981c-5.517,2.737-12.233,0.475-14.964-5.045c-2.04-4.113-2.426-8.534-1.06-12.103 c1.136-2.98,3.51-5.288,6.814-6.759c12.072-3.76,25.118,2.469,29.624,14.416c3.093,8.217,2.752,17.016-0.928,24.107 c-3.285,6.354-9.027,10.842-16.179,12.708c-14.66,3.812-25.748-3.026-36.048-11.298c-0.012-0.027-0.012-0.058-0.03-0.07 c-0.094-0.073-0.186-0.131-0.274-0.173c-1.815-1.473-3.617-2.974-5.395-4.479c-0.561-0.466-1.148-0.941-1.714-1.428 c2.862-0.073,5.499-1.278,7.627-3.629c3.44-3.852,3.13-9.776-0.685-13.21c-3.2-2.875-8.15-2.619-11.031,0.584 c-1.172,1.303-1.766,2.987-1.678,4.741c0.085,1.738,0.853,3.346,2.156,4.518c2.271,2.046,5.794,1.866,7.846-0.399 c0.21-0.231,0.25-0.53,0.292-0.822c0.161-0.387,0.256-0.786,0.186-1.209c-0.21-1.218-1.352-2.046-2.572-1.842 c-1.212,0.201-2.046,1.354-1.836,2.563c-0.648,0.07-1.31-0.131-1.827-0.603c-0.679-0.612-1.078-1.443-1.12-2.366 c-0.052-0.91,0.262-1.793,0.88-2.481c1.738-1.912,4.707-2.07,6.628-0.353c2.542,2.274,2.737,6.247,0.448,8.802 c-4.064,4.533-9.109,2.237-11.752,0.487c-0.009,0-0.015,0-0.015,0c-0.073-0.062-0.143-0.125-0.216-0.162 C34.864,82.644,25.435,76.259,12.889,81.614C7.646,83.849,3.6,88.051,1.499,93.442c-2.159,5.562-1.973,11.834,0.505,17.278 c2.317,5.063,6.713,8.488,11.704,9.81c-4.99,1.327-9.399,4.707-11.712,9.743c-2.469,5.419-2.655,11.703-0.509,17.262 c2.095,5.39,6.141,9.621,11.39,11.855c12.577,5.328,21.979-1.047,36.298-11.892c0.067-0.067,0.131-0.128,0.198-0.158 c0.012-0.006,0.024,0,0.037-0.006c2.64-1.741,7.678-4.031,11.749,0.487c2.302,2.562,2.095,6.521-0.441,8.811 c-1.927,1.699-4.896,1.571-6.622-0.371c-0.618-0.67-0.932-1.571-0.88-2.473c0.042-0.913,0.441-1.754,1.12-2.362 c0.518-0.463,1.188-0.646,1.827-0.609c-0.204,1.218,0.63,2.362,1.836,2.558c1.221,0.219,2.362-0.615,2.572-1.826 c0.07-0.421-0.024-0.847-0.186-1.219c-0.042-0.292-0.082-0.596-0.292-0.828c-2.059-2.246-5.581-2.459-7.846-0.396 c-1.297,1.175-2.07,2.759-2.156,4.536c-0.088,1.742,0.506,3.435,1.678,4.738c1.538,1.692,3.672,2.581,5.809,2.581 c1.86,0,3.729-0.657,5.212-1.997c3.824-3.434,4.128-9.359,0.682-13.207c-2.128-2.369-4.771-3.562-7.633-3.642 c0.572-0.481,1.16-0.956,1.726-1.443c1.778-1.491,3.568-2.983,5.377-4.444c0.097-0.08,0.191-0.129,0.286-0.195 c0.018-0.012,0.012-0.049,0.03-0.061c10.294-8.294,21.376-15.145,36.042-11.296c7.146,1.857,12.894,6.363,16.179,12.708 c3.684,7.1,4.022,15.887,0.929,24.089c-4.506,11.972-17.57,18.17-29.63,14.419c-3.297-1.474-5.675-3.775-6.808-6.753 c-1.373-3.58-0.986-7.982,1.06-12.111c1.321-2.673,3.611-4.664,6.433-5.608c2.832-0.938,5.854-0.742,8.531,0.579 c2.07,1.029,3.611,2.801,4.348,4.987c0.728,2.197,0.566,4.523-0.463,6.594c-0.773,1.571-2.106,2.729-3.766,3.289 c-1.671,0.584-3.461,0.45-5.039-0.342c-1.096-0.548-1.9-1.473-2.356-2.605c1.796,0.183,3.51-0.914,3.946-2.729 c0.469-1.942-0.734-3.934-2.698-4.408c-1.958-0.475-3.937,0.73-4.402,2.716c-0.07,0.286-0.03,0.56-0.03,0.847 c-0.326,1.431-0.393,2.916,0.085,4.311c0.694,2.027,2.141,3.702,4.074,4.646c2.332,1.175,4.969,1.352,7.419,0.499 c2.457-0.828,4.433-2.552,5.569-4.859c1.394-2.801,1.614-5.985,0.615-8.963c-0.996-2.983-3.099-5.396-5.916-6.79 c-3.425-1.687-7.295-1.948-10.912-0.736c-3.617,1.212-6.543,3.77-8.232,7.186c-2.174,4.396-2.649,9.104-1.532,13.195 c-3.562-4.976-4.664-11.563-2.354-17.714c1.397-3.727,4.153-6.655,7.764-8.294c3.617-1.644,7.645-1.777,11.356-0.389 c0.792,0.304,1.702-0.104,2.006-0.908c0.305-0.821-0.106-1.705-0.91-2.009c-4.482-1.687-9.365-1.522-13.737,0.45 c-4.369,1.967-7.706,5.547-9.396,10.029c-4.29,11.381,1.489,24.137,12.875,28.43c0.469,0.165,0.947,0.244,1.416,0.384 c0.186,0.073,0.338,0.183,0.53,0.269c0.195,0.072,0.387,0.115,0.582,0.115c0.043,0,0.079-0.043,0.125-0.043 c2.292,0.615,4.594,0.999,6.884,0.999c11.003,0,21.391-6.723,25.483-17.61c0.484-1.291,0.871-2.594,1.202-3.908 c0.332,1.314,0.716,2.617,1.203,3.908c4.098,10.888,14.483,17.61,25.48,17.61c2.29,0,4.598-0.384,6.881-0.999 c0.049,0,0.085,0.043,0.128,0.043c0.195,0,0.384-0.043,0.585-0.115c0.183-0.086,0.341-0.195,0.529-0.269 c0.469-0.14,0.944-0.219,1.419-0.384c11.381-4.293,17.159-17.031,12.872-28.43c-1.687-4.5-5.029-8.062-9.396-10.029 c-4.372-1.973-9.249-2.149-13.737-0.45c-0.804,0.304-1.218,1.188-0.907,2.009c0.299,0.811,1.206,1.188,2.004,0.908 c3.714-1.407,7.739-1.255,11.356,0.389c3.61,1.639,6.369,4.58,7.757,8.294c2.314,6.126,1.206,12.738-2.35,17.714 c1.126-4.092,0.646-8.799-1.528-13.195c-1.688-3.416-4.622-5.974-8.233-7.186c-3.616-1.212-7.489-0.943-10.911,0.736 c-2.808,1.395-4.914,3.807-5.906,6.79c-0.999,2.978-0.78,6.144,0.608,8.957c1.145,2.313,3.118,4.037,5.578,4.865 c2.46,0.853,5.097,0.663,7.416-0.499c1.937-0.944,3.38-2.619,4.074-4.646c0.475-1.431,0.401-2.893,0.085-4.311 c0-0.287,0.043-0.561-0.03-0.847c-0.463-1.948-2.448-3.19-4.402-2.716c-1.961,0.475-3.167,2.473-2.698,4.408 c0.433,1.803,2.156,2.911,3.946,2.729c-0.463,1.133-1.261,2.058-2.356,2.605c-1.577,0.792-3.367,0.914-5.042,0.342 c-1.669-0.561-2.996-1.718-3.77-3.301c-1.022-2.059-1.181-4.385-0.456-6.582c0.736-2.187,2.277-3.958,4.348-4.987 c2.685-1.315,5.711-1.517,8.537-0.579c2.818,0.944,5.108,2.954,6.43,5.608c2.046,4.129,2.436,8.531,1.06,12.111 c-1.133,2.978-3.508,5.279-6.808,6.753c-12.051,3.739-25.13-2.46-29.63-14.419c-3.093-8.202-2.749-17.007,0.922-24.089 c3.286-6.357,9.027-10.851,16.188-12.708c14.663-3.83,25.745,3.002,36.036,11.296c0.018,0.012,0.012,0.036,0.03,0.061 c0.104,0.085,0.201,0.134,0.292,0.195c1.809,1.461,3.599,2.953,5.371,4.444c0.572,0.487,1.163,0.969,1.729,1.456 c-2.867,0.066-5.511,1.26-7.647,3.629c-3.44,3.848-3.13,9.773,0.682,13.207c1.492,1.34,3.355,1.997,5.219,1.997 c2.137,0,4.28-0.889,5.815-2.581c2.417-2.723,2.198-6.869-0.481-9.256c-2.277-2.027-5.791-1.852-7.849,0.414 c-0.207,0.231-0.25,0.523-0.293,0.822c-0.158,0.377-0.255,0.785-0.183,1.211c0.207,1.206,1.353,2.047,2.57,1.84 c1.211-0.207,2.046-1.353,1.845-2.57c0.651-0.049,1.303,0.128,1.827,0.609c1.4,1.254,1.504,3.428,0.249,4.847 c-1.735,1.918-4.7,2.07-6.625,0.354c-2.545-2.29-2.746-6.241-0.45-8.812c4.067-4.523,9.109-2.234,11.758-0.486 c0.013,0.006,0.024,0,0.037,0.006c0.066,0.061,0.134,0.109,0.194,0.158c12.392,9.407,23.09,17.524,36.298,11.898 c5.248-2.241,9.292-6.455,11.387-11.862c2.149-5.554,1.96-11.837-0.512-17.257C236.759,125.219,232.356,121.846,227.363,120.518z M4.367,146.396c-1.845-4.779-1.69-10.181,0.435-14.833c3.392-7.404,12.185-10.655,19.568-7.282 c0.773,0.371,1.708,0.024,2.07-0.768c0.353-0.779,0.012-1.699-0.773-2.07c-0.935-0.414-1.903-0.712-2.862-0.962 c0.959-0.256,1.927-0.53,2.862-0.95c0.779-0.359,1.126-1.284,0.773-2.064c-0.362-0.797-1.303-1.145-2.07-0.772 c-7.401,3.379-16.176,0.118-19.562-7.277c-2.125-4.665-2.287-10.068-0.429-14.845c1.358-3.504,3.678-6.391,6.665-8.442 c-0.356,0.393-0.734,0.755-1.072,1.184c-2.302,3.039-3.279,6.804-2.755,10.583c0.524,3.767,2.487,7.146,5.535,9.438 c2.122,1.604,4.604,2.372,7.073,2.372c3.559,0,7.082-1.617,9.383-4.665c1.559-2.058,2.219-4.616,1.863-7.185 c-0.359-2.561-1.696-4.832-3.766-6.391c-1.727-1.303-3.846-1.869-5.998-1.565c-2.131,0.298-4.022,1.421-5.312,3.129 c-0.144,0.195-0.125,0.433-0.168,0.649c-0.356,0.743-0.505,1.604-0.28,2.463c0.5,1.946,2.487,3.13,4.445,2.63 c1.952-0.484,3.13-2.481,2.625-4.445c-0.131-0.5-0.353-0.935-0.648-1.328c1.236-0.112,2.463,0.195,3.468,0.947 c1.404,1.062,2.314,2.606,2.558,4.348c0.244,1.726-0.207,3.474-1.273,4.862c-2.855,3.79-8.281,4.545-12.084,1.689 c-2.384-1.803-3.915-4.421-4.326-7.389c-0.414-2.954,0.354-5.885,2.149-8.272c4.753-6.281,11.959-7.234,20.295-2.67 c0.344,0.183,0.737,0.195,1.093,0.113c4.01,2.286,8.342,5.48,13.43,9.329c2.356,1.787,4.689,3.766,7.085,5.772 c-2.533,0.106-4.926,1.093-6.972,3.044c-1.809,1.727-2.838,4.053-2.886,6.564c-0.058,2.505,0.858,4.871,2.594,6.683 c1.535,1.596,3.59,2.399,5.648,2.399c1.945,0,3.885-0.7,5.395-2.155c1.263-1.219,1.982-2.851,2.019-4.589 c0.04-1.744-0.609-3.422-1.821-4.688c-2.119-2.207-5.647-2.269-7.855-0.161c-0.387,0.374-0.463,0.88-0.38,1.357 c-0.064,0.256-0.101,0.524-0.07,0.798c0.131,1.224,1.224,2.128,2.463,1.991c1.23-0.131,2.122-1.236,1.991-2.469 c0-0.027-0.015-0.045-0.021-0.064c0.593,0.037,1.181,0.25,1.623,0.706c0.636,0.655,0.978,1.535,0.953,2.463 c-0.019,0.911-0.393,1.769-1.06,2.412c-1.87,1.793-4.838,1.714-6.634-0.137c-1.154-1.197-1.766-2.786-1.726-4.458 c0.036-1.678,0.722-3.236,1.933-4.378c4.059-3.897,8.528-1.915,11.162-0.037c8.397,6.832,17.308,12.848,28.299,13.482 c-10.985,0.645-19.909,6.648-28.321,13.48c-2.637,1.876-7.094,3.849-11.146-0.049c-1.206-1.156-1.891-2.715-1.927-4.371 c-0.04-1.681,0.572-3.252,1.72-4.457c1.802-1.876,4.777-1.938,6.64-0.141c1.373,1.309,1.416,3.501,0.106,4.854 c-0.441,0.463-1.035,0.693-1.635,0.73c0.006-0.024,0.027-0.061,0.027-0.092c0.131-1.211-0.768-2.332-1.991-2.466 c-1.239-0.128-2.338,0.767-2.463,1.979c-0.031,0.285,0.006,0.554,0.07,0.81c-0.082,0.475-0.006,0.979,0.38,1.352 c2.208,2.106,5.73,2.034,7.855-0.165c2.5-2.617,2.408-6.776-0.198-9.273c-3.118-2.978-8.068-2.874-11.042,0.244 c-1.729,1.809-2.652,4.177-2.594,6.686c0.055,2.496,1.084,4.822,2.886,6.559c2.046,1.954,4.433,2.965,6.966,3.057 c-2.39,2.003-4.716,3.976-7.073,5.76c-5.069,3.849-9.402,7.033-13.405,9.322c-0.368-0.098-0.761-0.085-1.117,0.122 c-8.336,4.573-15.537,3.617-20.295-2.673c-3.711-4.914-2.731-11.936,2.177-15.649c3.803-2.886,9.222-2.106,12.084,1.687 c1.06,1.413,1.507,3.143,1.273,4.871c-0.244,1.742-1.154,3.282-2.558,4.348c-0.999,0.75-2.208,1.061-3.468,0.938 c0.301-0.384,0.524-0.828,0.655-1.327c0.505-1.943-0.673-3.952-2.625-4.445c-1.958-0.5-3.946,0.67-4.445,2.63 c-0.219,0.858-0.07,1.693,0.28,2.454c0.042,0.231,0.024,0.457,0.173,0.664c1.297,1.705,3.188,2.825,5.319,3.13 c2.128,0.268,4.271-0.256,5.991-1.571c2.07-1.559,3.407-3.818,3.767-6.388c0.356-2.569-0.305-5.121-1.863-7.185 c-3.897-5.158-11.28-6.193-16.456-2.296c-6.278,4.773-7.526,13.737-2.78,20.021c0.356,0.469,0.773,0.828,1.16,1.236 C8.087,152.863,5.73,149.935,4.367,146.396z M140.959,121.607c-8.008,2.083-14.462,7.155-18.161,14.292 c-0.978,1.899-1.727,3.879-2.28,5.937c-0.548-2.058-1.303-4.037-2.284-5.937c-3.696-7.137-10.151-12.209-18.161-14.292 c-2.347-0.608-4.597-0.955-6.768-1.12c2.177-0.151,4.421-0.511,6.768-1.126c8.01-2.083,14.465-7.155,18.161-14.294 c0.98-1.897,1.729-3.873,2.284-5.931c0.554,2.059,1.303,4.034,2.28,5.931c3.699,7.139,10.153,12.211,18.161,14.294 c2.332,0.608,4.566,0.956,6.74,1.126C145.544,120.652,143.291,120.999,140.959,121.607z M236.674,146.396 c-1.37,3.52-3.721,6.443-6.747,8.477c0.384-0.414,0.792-0.768,1.151-1.23c4.749-6.283,3.501-15.259-2.783-20.021 c-5.182-3.885-12.556-2.85-16.459,2.296c-1.559,2.063-2.216,4.615-1.863,7.185c0.359,2.563,1.693,4.829,3.764,6.388 c1.723,1.315,3.86,1.863,5.991,1.571c2.132-0.311,4.025-1.425,5.322-3.13c0.146-0.207,0.128-0.438,0.171-0.664 c0.353-0.742,0.499-1.589,0.279-2.454c-0.499-1.948-2.484-3.13-4.444-2.636c-1.955,0.499-3.13,2.496-2.625,4.451 c0.134,0.499,0.354,0.938,0.651,1.327c-1.248,0.128-2.466-0.183-3.471-0.938c-1.406-1.059-2.313-2.605-2.558-4.348 c-0.243-1.729,0.207-3.471,1.273-4.871c2.861-3.775,8.293-4.542,12.087-1.687c4.907,3.721,5.882,10.76,2.18,15.655 c-4.756,6.296-11.959,7.24-20.295,2.68c-0.359-0.184-0.762-0.207-1.133-0.135c-4.001-2.283-8.324-5.468-13.384-9.316 c-2.356-1.79-4.677-3.763-7.069-5.76c2.521-0.122,4.907-1.108,6.947-3.057c3.739-3.557,3.873-9.5,0.299-13.244 c-2.978-3.088-7.935-3.215-11.046-0.226c-2.606,2.479-2.697,6.638-0.189,9.256c2.113,2.204,5.646,2.283,7.855,0.158 c0.384-0.365,0.463-0.864,0.384-1.352c0.066-0.256,0.104-0.524,0.073-0.804c-0.135-1.219-1.225-2.119-2.467-1.985 c-1.229,0.134-2.119,1.229-1.991,2.472c0,0.049,0.024,0.073,0.031,0.098c-0.604-0.036-1.182-0.268-1.632-0.73 c-1.31-1.376-1.267-3.55,0.104-4.859c1.875-1.777,4.853-1.717,6.637,0.146c2.381,2.473,2.289,6.454-0.207,8.829 c-4.037,3.885-8.464,1.931-11.106,0.073c-8.409-6.844-17.324-12.86-28.303-13.512c10.973-0.652,19.875-6.662,28.272-13.494 c2.637-1.872,7.094-3.842,11.143,0.049c2.497,2.381,2.588,6.354,0.207,8.836c-1.802,1.863-4.779,1.936-6.643,0.143 c-0.658-0.648-1.042-1.482-1.054-2.411c-0.019-0.91,0.316-1.79,0.95-2.469c0.444-0.457,1.035-0.661,1.625-0.707 c0,0.024-0.018,0.046-0.024,0.07c-0.128,1.215,0.768,2.338,1.991,2.469c1.236,0.131,2.339-0.767,2.467-1.991 c0.03-0.274-0.007-0.542-0.073-0.797c0.085-0.479,0.006-0.99-0.384-1.358c-2.21-2.106-5.736-2.034-7.855,0.168 c-1.205,1.266-1.863,2.938-1.82,4.688c0.037,1.741,0.755,3.376,2.016,4.594c1.51,1.426,3.459,2.156,5.401,2.156 c2.058,0,4.116-0.805,5.65-2.399c3.568-3.751,3.435-9.694-0.298-13.253c-2.053-1.958-4.439-2.963-6.967-3.045 c2.394-2.012,4.72-3.982,7.082-5.772c5.066-3.848,9.396-7.027,13.39-9.316c0.372,0.101,0.773,0.082,1.133-0.131 c8.343-4.558,15.546-3.599,20.289,2.676c3.721,4.92,2.734,11.947-2.174,15.649c-3.806,2.874-9.225,2.116-12.087-1.689 c-1.06-1.41-1.504-3.136-1.272-4.862c0.243-1.741,1.157-3.285,2.558-4.348c0.998-0.758,2.223-1.072,3.471-0.947 c-0.305,0.386-0.523,0.828-0.651,1.328c-0.506,1.957,0.67,3.961,2.624,4.445c1.955,0.5,3.946-0.661,4.445-2.63 c0.219-0.858,0.073-1.702-0.28-2.457c-0.043-0.223-0.024-0.46-0.164-0.655c-1.297-1.708-3.185-2.832-5.316-3.129 c-2.161-0.323-4.28,0.255-5.997,1.564c-2.07,1.559-3.404,3.83-3.764,6.4c-0.359,2.56,0.305,5.118,1.863,7.176 c2.302,3.047,5.821,4.664,9.384,4.664c2.466,0,4.95-0.768,7.075-2.366c6.284-4.762,7.532-13.734,2.776-20.027 c-0.341-0.43-0.706-0.792-1.065-1.173c2.984,2.022,5.31,4.92,6.655,8.431c1.852,4.777,1.693,10.181-0.432,14.839 c-3.386,7.408-12.16,10.674-19.564,7.289c-0.779-0.359-1.699-0.012-2.07,0.768c-0.354,0.779-0.013,1.705,0.773,2.063 c0.938,0.427,1.905,0.695,2.861,0.95c-0.962,0.256-1.924,0.548-2.861,0.969c-0.78,0.365-1.127,1.29-0.773,2.07 c0.365,0.791,1.291,1.139,2.07,0.767c7.41-3.373,16.179-0.127,19.564,7.283C238.354,136.229,238.519,141.629,236.674,146.396z"/> </g> </g>
</svg>